<?xml version="1.0" encoding="UTF-8"?>
<!DOCTYPE svg PUBLIC "-//W3C//DTD SVG 1.1//EN" "http://www.w3.org/Graphics/SVG/1.1/DTD/svg11.dtd">
<svg xmlns="http://www.w3.org/2000/svg" version="1.1" width="240px" height="60px" style="shape-rendering:geometricPrecision; text-rendering:geometricPrecision; image-rendering:optimizeQuality; fill-rule:evenodd; clip-rule:evenodd" xmlns:xlink="http://www.w3.org/1999/xlink">
<g><path style="opacity:0.931" fill="#262726" d="M 49.5,30.5 C 49.5,31.1667 49.5,31.8333 49.5,32.5C 49.5,35.8333 49.5,39.1667 49.5,42.5C 49.5,45.5 49.5,48.5 49.5,51.5C 33.8333,51.5 18.1667,51.5 2.5,51.5C 2.5,46.5 2.5,41.5 2.5,36.5C 5.83333,36.5 9.16667,36.5 12.5,36.5C 12.2606,38.4672 12.5939,40.3005 13.5,42C 21.8333,42.6667 30.1667,42.6667 38.5,42C 39.5914,39.9361 39.7581,37.7695 39,35.5C 32.1667,28.6667 25.3333,21.8333 18.5,15C 13.1771,14.5006 7.84372,14.334 2.5,14.5C 2.5,11.5 2.5,8.5 2.5,5.5C 9.8409,5.33368 17.1742,5.50034 24.5,6C 32.7017,14.369 41.035,22.5357 49.5,30.5 Z"/></g>
<g><path style="opacity:0.933" fill="#a50000" d="M 96.5,5.5 C 96.5,8.5 96.5,11.5 96.5,14.5C 91.1563,14.334 85.8229,14.5006 80.5,15C 85.6667,20.1667 90.8333,25.3333 96,30.5C 96.4955,32.4727 96.6621,34.4727 96.5,36.5C 96.7845,38.4147 96.4511,40.0813 95.5,41.5C 94.1266,41.6567 92.7932,41.49 91.5,41C 81.6667,31.1667 71.8333,21.3333 62,11.5C 61.5045,9.5273 61.3379,7.5273 61.5,5.5C 73.1667,5.5 84.8333,5.5 96.5,5.5 Z"/></g>
<g><path style="opacity:0.935" fill="#262726" d="M 96.5,5.5 C 103.508,5.33371 110.508,5.50038 117.5,6C 125.702,14.369 134.035,22.5357 142.5,30.5C 142.5,31.1667 142.5,31.8333 142.5,32.5C 142.5,35.8333 142.5,39.1667 142.5,42.5C 142.5,45.5 142.5,48.5 142.5,51.5C 126.833,51.5 111.167,51.5 95.5,51.5C 95.5,48.1667 95.5,44.8333 95.5,41.5C 96.4511,40.0813 96.7845,38.4147 96.5,36.5C 99.5,36.5 102.5,36.5 105.5,36.5C 105.261,38.4672 105.594,40.3005 106.5,42C 114.833,42.6667 123.167,42.6667 131.5,42C 132.591,39.9361 132.758,37.7695 132,35.5C 125.167,28.6667 118.333,21.8333 111.5,15C 106.511,14.5007 101.511,14.3341 96.5,14.5C 96.5,11.5 96.5,8.5 96.5,5.5 Z"/></g>
<g><path style="opacity:0.932" fill="#a50000" d="M 189.5,5.5 C 189.5,8.5 189.5,11.5 189.5,14.5C 184.156,14.334 178.823,14.5006 173.5,15C 178.702,20.3697 184.035,25.5364 189.5,30.5C 189.5,34.1667 189.5,37.8333 189.5,41.5C 187.801,41.6602 186.134,41.4935 184.5,41C 174.667,31.1667 164.833,21.3333 155,11.5C 154.505,9.5273 154.338,7.5273 154.5,5.5C 166.167,5.5 177.833,5.5 189.5,5.5 Z"/></g>
<g><path style="opacity:0.944" fill="#262726" d="M 189.5,5.5 C 205.167,5.5 220.833,5.5 236.5,5.5C 236.5,8.5 236.5,11.5 236.5,14.5C 231.156,14.334 225.823,14.5006 220.5,15C 213.667,21.8333 206.833,28.6667 200,35.5C 199.242,37.7695 199.409,39.9361 200.5,42C 208.833,42.6667 217.167,42.6667 225.5,42C 226.406,40.3005 226.739,38.4672 226.5,36.5C 229.833,36.5 233.167,36.5 236.5,36.5C 236.5,41.5 236.5,46.5 236.5,51.5C 220.833,51.5 205.167,51.5 189.5,51.5C 189.5,48.1667 189.5,44.8333 189.5,41.5C 189.5,37.8333 189.5,34.1667 189.5,30.5C 194.965,25.5364 200.298,20.3697 205.5,15C 200.177,14.5006 194.844,14.334 189.5,14.5C 189.5,11.5 189.5,8.5 189.5,5.5 Z"/></g>
<g><path style="opacity:0.929" fill="#a50000" d="M 49.5,51.5 C 49.5,48.5 49.5,45.5 49.5,42.5C 57.1955,42.8308 64.8622,42.4975 72.5,41.5C 68.5154,37.0149 64.3487,32.6816 60,28.5C 59.51,29.7932 59.3433,31.1266 59.5,32.5C 56.1667,32.5 52.8333,32.5 49.5,32.5C 49.5,31.8333 49.5,31.1667 49.5,30.5C 49.5,24.8333 49.5,19.1667 49.5,13.5C 53.1817,13.3347 56.8484,13.5014 60.5,14C 71,24.5 81.5,35 92,45.5C 92.7429,47.4406 92.5762,49.2739 91.5,51C 77.504,51.4999 63.504,51.6666 49.5,51.5 Z"/></g>
<g><path style="opacity:0.929" fill="#a50000" d="M 142.5,51.5 C 142.5,48.5 142.5,45.5 142.5,42.5C 150.196,42.8308 157.862,42.4975 165.5,41.5C 161.515,37.0149 157.349,32.6816 153,28.5C 152.51,29.7932 152.343,31.1266 152.5,32.5C 149.167,32.5 145.833,32.5 142.5,32.5C 142.5,31.8333 142.5,31.1667 142.5,30.5C 142.5,24.8333 142.5,19.1667 142.5,13.5C 146.182,13.3347 149.848,13.5014 153.5,14C 164,24.5 174.5,35 185,45.5C 185.743,47.4406 185.576,49.2739 184.5,51C 170.504,51.4999 156.504,51.6666 142.5,51.5 Z"/></g>
</svg>
