<?xml version="1.0" ?><svg id="Line" style="enable-background:new 0 0 128 128;" version="1.1" viewBox="0 0 128 128" xml:space="preserve" xmlns="http://www.w3.org/2000/svg" xmlns:xlink="http://www.w3.org/1999/xlink"><g><path d="M20,22c-1.654,0-3,1.346-3,3s1.346,3,3,3s3-1.346,3-3S21.654,22,20,22z M20,26c-0.552,0-1-0.449-1-1s0.448-1,1-1   s1,0.449,1,1S20.552,26,20,26z"/><path d="M109,27.976c1.654,0,3-1.346,3-3s-1.346-3-3-3s-3,1.346-3,3S107.346,27.976,109,27.976z M109,23.976c0.552,0,1,0.449,1,1   s-0.448,1-1,1s-1-0.449-1-1S108.448,23.976,109,23.976z"/><path d="M23,102.976c0-1.654-1.346-3-3-3s-3,1.346-3,3s1.346,3,3,3S23,104.63,23,102.976z M19,102.976c0-0.551,0.448-1,1-1   s1,0.449,1,1s-0.448,1-1,1S19,103.527,19,102.976z"/><path d="M108,99.976c-1.654,0-3,1.346-3,3s1.346,3,3,3s3-1.346,3-3S109.654,99.976,108,99.976z M108,103.976c-0.552,0-1-0.449-1-1   s0.448-1,1-1s1,0.449,1,1S108.552,103.976,108,103.976z"/><path d="M84.509,51.301l22.051-19.77c0.758,0.282,1.573,0.444,2.428,0.444c0.02,0,0.039-0.003,0.058-0.003l12.228,15.716   c0.799,0.874,1.856,1.337,2.857,1.337c0.614,0,1.207-0.175,1.706-0.537c0.569-0.413,2.254-2.065,0.042-5.972l-3.998-7   c-1.084-2.17-2.219-4.305-3.163-5.211l-3.107-3.107c0.233-0.696,0.365-1.438,0.365-2.212c0-3.853-3.135-6.988-6.988-6.988   c-0.347,0-0.686,0.034-1.019,0.083L95.715,2.333c-1.291-1.41-3.253-1.754-4.564-0.801c-0.569,0.413-2.254,2.065-0.042,5.972   l3.995,6.994c1.032,2.068,2.218,4.307,3.166,5.217l3.872,3.872c-0.093,0.453-0.141,0.922-0.141,1.401   c0,0.088,0.01,0.173,0.013,0.259L84.419,35.91C82.9,30.566,78.499,26.423,73,25.302V25c0-0.066-0.007-0.131-0.02-0.196   C72.532,22.564,70.484,21,68,21h-8c-2.484,0-4.532,1.564-4.98,3.804C55.007,24.869,55,24.934,55,25v0.302   c-5.492,1.12-9.889,5.256-11.413,10.612L26.926,25.816c0.03-0.264,0.05-0.531,0.05-0.804c0-0.764-0.128-1.498-0.356-2.187   l3.096-3.096c0.963-0.924,2.148-3.163,3.176-5.226L36.894,7.5c2.21-3.903,0.525-5.555-0.044-5.968   c-1.312-0.955-3.274-0.609-4.615,0.862l-12.16,15.635c-0.029,0-0.057-0.004-0.087-0.004c-3.853,0-6.987,3.135-6.987,6.988   c0,0.49,0.052,0.967,0.148,1.429l-3.851,3.851c-0.959,0.92-2.094,3.056-3.176,5.226l-4.002,7.003   c-2.21,3.903-0.525,5.555,0.044,5.968c0.494,0.359,1.081,0.534,1.691,0.534c1.011,0,2.088-0.479,2.924-1.396l12.216-15.706   C19.32,31.968,19.649,32,19.987,32c0.596,0,1.173-0.083,1.726-0.224l21.778,19.525l1.063,24.445L21.713,96.224   C21.16,96.083,20.584,96,19.987,96c-0.338,0-0.668,0.032-0.993,0.079L6.728,80.312c-1.291-1.411-3.252-1.753-4.564-0.801   c-0.569,0.413-2.254,2.065-0.042,5.972l3.997,6.998c1.084,2.17,2.219,4.306,3.164,5.213l3.866,3.866   c-0.096,0.461-0.148,0.939-0.148,1.429c0,3.853,3.135,6.988,6.987,6.988c0.029,0,0.057-0.004,0.087-0.004l12.212,15.696   c0.799,0.874,1.856,1.338,2.857,1.338c0.614,0,1.207-0.175,1.706-0.537c0.569-0.414,2.254-2.065,0.042-5.972l-3.995-6.994   c-1.032-2.068-2.218-4.307-3.166-5.217l-3.111-3.111c0.228-0.689,0.356-1.423,0.356-2.187c0-0.272-0.02-0.539-0.05-0.804   L46.11,90.557C47.771,93.784,51.128,96,55,96h18c3.876,0,7.237-2.222,8.896-5.44l19.156,11.61c-0.031,0.269-0.052,0.54-0.052,0.817   c0,0.771,0.13,1.511,0.362,2.205l-3.078,3.078c-0.963,0.924-2.148,3.163-3.176,5.226l-4.002,7.003   c-2.21,3.903-0.525,5.555,0.044,5.968c0.494,0.359,1.081,0.534,1.691,0.534c1.011,0,2.088-0.479,2.924-1.396l12.16-15.634   c0.021,0,0.041,0.003,0.062,0.003c3.854,0,6.988-3.135,6.988-6.988c0-0.766-0.128-1.502-0.357-2.192l3.074-3.074   c0.959-0.92,2.094-3.056,3.176-5.226l4.002-7.003c2.21-3.903,0.525-5.555-0.044-5.968c-1.312-0.955-3.274-0.609-4.615,0.862   l-12.147,15.618c-0.026,0-0.051-0.004-0.076-0.004c-0.589,0-1.159,0.081-1.706,0.219L83.447,75.747L84.509,51.301z M117.318,31.735   c0.842,0.808,2.245,3.618,2.773,4.676c0.008,0.017,0.041,0.083,0.051,0.099l3.998,6.997c1.037,1.832,1.01,3.01,0.521,3.365   c-0.417,0.302-1.283,0.157-1.862-0.471l-11.524-14.817c1.368-0.476,2.541-1.363,3.374-2.516L117.318,31.735z M113.976,24.988   c0,2.75-2.237,4.988-4.988,4.988c-2.75,0-4.987-2.237-4.987-4.988S106.237,20,108.987,20C111.738,20,113.976,22.237,113.976,24.988   z M99.669,18.286c-0.843-0.809-2.247-3.622-2.775-4.681c-0.009-0.017-0.039-0.077-0.049-0.093l-3.998-6.997   c-1.037-1.832-1.009-3.01-0.521-3.365c0.411-0.302,1.28-0.159,1.861,0.471l11.74,15.094c-1.263,0.619-2.313,1.604-3.008,2.821   L99.669,18.286z M102.417,27.341c0.453,1.261,1.256,2.353,2.294,3.161L84.63,48.505L85,40c0-0.684-0.062-1.352-0.151-2.012   L102.417,27.341z M60,23h8c1.241,0,2.615,0.638,2.98,2.05C70.655,25.028,70.331,25,70,25H58c-0.331,0-0.655,0.028-0.98,0.05   C57.385,23.638,58.759,23,60,23z M33.761,3.682c0.632-0.69,1.5-0.833,1.913-0.532c0.488,0.354,0.517,1.533-0.519,3.361l-4,7   c-0.01,0.016-0.04,0.076-0.049,0.093c-0.528,1.059-1.933,3.873-2.79,4.696l-2.652,2.652c-0.829-1.156-2-2.047-3.366-2.527   L33.761,3.682z M5.252,46.339c-0.633,0.69-1.501,0.833-1.913,0.532c-0.488-0.354-0.517-1.533,0.519-3.361l4-7   c0.01-0.016,0.043-0.082,0.051-0.099c0.528-1.058,1.932-3.868,2.788-4.69l3.236-3.236c0.699,1.214,1.751,2.196,3.016,2.81   L5.252,46.339z M15,25.012c0-2.75,2.237-4.988,4.987-4.988c2.751,0,4.988,2.237,4.988,4.988S22.738,30,19.987,30   C17.237,30,15,27.763,15,25.012z M23.734,30.901c1.159-0.74,2.086-1.808,2.646-3.077l16.776,10.168   c-0.092,0.673-0.156,1.354-0.155,2.052l0.368,8.461L23.734,30.901z M10.682,96.265c-0.842-0.809-2.245-3.62-2.774-4.678   c-0.008-0.017-0.04-0.081-0.05-0.097l-3.998-6.997c-1.037-1.832-1.009-3.01-0.521-3.365C3.75,80.828,4.619,80.97,5.2,81.6   l11.748,15.105c-1.265,0.615-2.317,1.596-3.016,2.81L10.682,96.265z M15,102.988c0-2.75,2.237-4.988,4.987-4.988   c2.751,0,4.988,2.237,4.988,4.988s-2.237,4.988-4.988,4.988C17.237,107.976,15,105.738,15,102.988z M28.331,109.714   c0.843,0.809,2.247,3.622,2.775,4.681c0.009,0.017,0.039,0.077,0.049,0.093l3.998,6.997c1.037,1.832,1.009,3.01,0.521,3.365   c-0.413,0.299-1.28,0.158-1.861-0.471l-11.514-14.804c1.366-0.481,2.537-1.371,3.366-2.527L28.331,109.714z M26.38,100.176   c-0.56-1.269-1.487-2.337-2.646-3.077l20.932-18.767L45,86c0,0.924,0.136,1.816,0.372,2.666L26.38,100.176z M56.219,94l0.75-3.757   C57.295,88.943,58.569,88,60,88h8c1.431,0,2.705,0.943,3.02,2.196L71.78,94H56.219z M73.811,93.959l-0.842-4.202   C72.426,87.58,70.335,86,68,86h-8c-2.335,0-4.426,1.58-4.98,3.804l-0.831,4.155c-4.031-0.408-7.189-3.824-7.189-8.002l-1.53-35.173   c0-0.001,0-0.003,0-0.004L45,40c0-0.812,0.084-1.605,0.228-2.376c0-0.001,0-0.001,0-0.002C46.35,31.587,51.645,27,58,27h12   c6.356,0,11.652,4.589,12.773,10.595c0.002,0.019,0.005,0.036,0.008,0.055c0.137,0.75,0.219,1.519,0.219,2.307L81,86   C81,90.137,77.843,93.551,73.811,93.959z M94.239,124.318c-0.633,0.69-1.502,0.832-1.913,0.532   c-0.488-0.354-0.517-1.533,0.519-3.361l4-7c0.01-0.016,0.04-0.076,0.049-0.093c0.528-1.059,1.933-3.873,2.79-4.696l2.638-2.638   c0.833,1.155,2.006,2.043,3.375,2.52L94.239,124.318z M107.987,107.976c-2.75,0-4.987-2.237-4.987-4.988S105.237,98,107.987,98   c2.751,0,4.988,2.237,4.988,4.988S110.738,107.976,107.987,107.976z M121.737,81.675c0.632-0.691,1.5-0.833,1.913-0.532   c0.488,0.354,0.517,1.533-0.519,3.361l-4,7c-0.01,0.016-0.043,0.082-0.051,0.099c-0.528,1.058-1.932,3.868-2.788,4.69l-2.631,2.631   c-0.831-1.157-2.004-2.047-3.372-2.527L121.737,81.675z M104.256,97.09c-1.162,0.738-2.092,1.806-2.655,3.075L82.633,88.669   c0.232-0.839,0.366-1.716,0.366-2.625l0.335-7.711L104.256,97.09z"/><path d="M73,34H55c-2.757,0-5,2.243-5,5v8c0,2.757,2.243,5,5,5h18c2.757,0,5-2.243,5-5v-8C78,36.243,75.757,34,73,34z M76,47   c0,1.654-1.346,3-3,3H55c-1.654,0-3-1.346-3-3v-8c0-1.654,1.346-3,3-3h18c1.654,0,3,1.346,3,3V47z"/></g></svg>