<?xml version="1.0" encoding="UTF-8" standalone="no"?><!DOCTYPE svg PUBLIC "-//W3C//DTD SVG 1.1//EN" "http://www.w3.org/Graphics/SVG/1.1/DTD/svg11.dtd"><svg width="24px" height="24px" version="1.1" xmlns="http://www.w3.org/2000/svg" xmlns:xlink="http://www.w3.org/1999/xlink" xml:space="preserve" xmlns:serif="http://www.serif.com/" style="fill-rule:evenodd;clip-rule:evenodd;stroke-linecap:round;stroke-linejoin:round;stroke-miterlimit:1.5;"><path d="M22,7c0,-2.76 -2.24,-5 -5,-5l-10,0c-2.76,0 -5,2.24 -5,5l0,10c0,2.76 2.24,5 5,5l10,-0c2.76,-0 5,-2.24 5,-5l0,-10Z" style="fill:none;stroke:#000;stroke-width:2px;"/><path d="M8,11l6,-0" style="fill:none;stroke:#0a0a0a;stroke-width:2px;"/><path d="M11,17l0,-8.009c-0,-0.528 0.21,-1.034 0.583,-1.408c0.374,-0.373 0.88,-0.583 1.408,-0.583c1.394,-0 3.009,-0 3.009,-0" style="fill:none;stroke:#0a0a0a;stroke-width:2px;"/></svg>