<?xml version="1.0" ?><svg height="20px" version="1.1" viewBox="0 0 20 20" width="20px" xmlns="http://www.w3.org/2000/svg" xmlns:xlink="http://www.w3.org/1999/xlink"><title/><g fill="none" fill-rule="evenodd" id="Icons" stroke="none" stroke-width="1"><g id="Shape" transform="translate(-2.000000, -2.000000)"><circle cx="12" cy="12" r="3.5" stroke="#000000" stroke-linecap="round" stroke-linejoin="round" stroke-width="2"/><path d="M6,3 L18,3 C19.6568542,3 21,4.34314575 21,6 L21,18 C21,19.6568542 19.6568542,21 18,21 L6,21 C4.34314575,21 3,19.6568542 3,18 L3,6 C3,4.34314575 4.34314575,3 6,3 Z" stroke="#000000" stroke-linecap="round" stroke-linejoin="round" stroke-width="2"/><path d="M17.0043926,6 C17.5566774,6 18.0043926,6.44771525 18.0043926,7 C18.0043926,7.51283584 17.6183524,7.93550716 17.1210137,7.99327227 L17.0043926,8 C16.4477153,8 16,7.55228475 16,7 C16,6.48716416 16.3860402,6.06449284 16.8833789,6.00672773 L17.0043926,6 Z" fill="#000000" fill-rule="nonzero"/></g></g></svg>