<?xml version="1.0" ?><svg fill="none" height="24" viewBox="0 0 24 24" width="24" xmlns="http://www.w3.org/2000/svg"><path d="M8 7L8.58579 7.58579C9.49129 8.49129 10.7194 9 12 9V9C13.2806 9 14.5087 8.49129 15.4142 7.58579L16 7M16 17L15.4142 16.4142C14.5087 15.5087 13.2806 15 12 15V15C10.7194 15 9.49129 15.5087 8.58579 16.4142L8 17" stroke="#1A6A83" stroke-linecap="round" stroke-linejoin="round" stroke-width="0.5"/><path d="M21 6C21 7.65685 19.6569 9 18 9M15 6C15 4.34315 16.3431 3 18 3" stroke="#1A6A83" stroke-linecap="round" stroke-linejoin="round" stroke-width="0.5"/><path d="M8.5 6C8.5 4.61929 7.38071 3.5 6 3.5M6 8.5C4.61929 8.5 3.5 7.38071 3.5 6" stroke="#1A6A83" stroke-linecap="round" stroke-linejoin="round" stroke-width="0.5"/><path d="M18 21C16.3431 21 15 19.6569 15 18M18 15C19.6569 15 21 16.3431 21 18" stroke="#1A6A83" stroke-linecap="round" stroke-linejoin="round" stroke-width="0.5"/><path d="M9 18C9 19.6569 7.65685 21 6 21M3 18C3 16.3431 4.34315 15 6 15" stroke="#1A6A83" stroke-linecap="round" stroke-linejoin="round" stroke-width="0.5"/><path d="M18 6L15.4142 8.58579C14.5087 9.49129 14 10.7194 14 12V12C14 13.2806 14.5087 14.5087 15.4142 15.4142L18 18" stroke="#1A6A83" stroke-linecap="round" stroke-linejoin="round" stroke-width="0.5"/><path d="M6 6L8.58579 8.58579C9.49129 9.49129 10 10.7194 10 12V12C10 13.2806 9.49129 14.5087 8.58579 15.4142L6 18" stroke="#1A6A83" stroke-linecap="round" stroke-linejoin="round" stroke-width="0.5"/><path d="M7.75 6.25C7.75 7.07843 7.07843 7.75 6.25 7.75C5.42157 7.75 4.75 7.07843 4.75 6.25C4.75 5.42157 5.42157 4.75 6.25 4.75C7.07843 4.75 7.75 5.42157 7.75 6.25Z" fill="#00FFB0"/><path d="M7.75 18.25C7.75 19.0784 7.07843 19.75 6.25 19.75C5.42157 19.75 4.75 19.0784 4.75 18.25C4.75 17.4216 5.42157 16.75 6.25 16.75C7.07843 16.75 7.75 17.4216 7.75 18.25Z" fill="#00FFB0"/><path d="M19.75 6.25C19.75 7.07843 19.0784 7.75 18.25 7.75C17.4216 7.75 16.75 7.07843 16.75 6.25C16.75 5.42157 17.4216 4.75 18.25 4.75C19.0784 4.75 19.75 5.42157 19.75 6.25Z" fill="#00FFB0"/><path d="M19.75 18.25C19.75 19.0784 19.0784 19.75 18.25 19.75C17.4216 19.75 16.75 19.0784 16.75 18.25C16.75 17.4216 17.4216 16.75 18.25 16.75C19.0784 16.75 19.75 17.4216 19.75 18.25Z" fill="#00FFB0"/><path d="M7.5 6C7.5 6.82843 6.82843 7.5 6 7.5C5.17157 7.5 4.5 6.82843 4.5 6C4.5 5.17157 5.17157 4.5 6 4.5C6.82843 4.5 7.5 5.17157 7.5 6Z" stroke="#1A6A83" stroke-linecap="round" stroke-width="0.2"/><path d="M7.5 18C7.5 18.8284 6.82843 19.5 6 19.5C5.17157 19.5 4.5 18.8284 4.5 18C4.5 17.1716 5.17157 16.5 6 16.5C6.82843 16.5 7.5 17.1716 7.5 18Z" stroke="#1A6A83" stroke-linecap="round" stroke-width="0.2"/><path d="M19.5 6C19.5 6.82843 18.8284 7.5 18 7.5C17.1716 7.5 16.5 6.82843 16.5 6C16.5 5.17157 17.1716 4.5 18 4.5C18.8284 4.5 19.5 5.17157 19.5 6Z" stroke="#1A6A83" stroke-linecap="round" stroke-width="0.2"/><path d="M19.5 18C19.5 18.8284 18.8284 19.5 18 19.5C17.1716 19.5 16.5 18.8284 16.5 18C16.5 17.1716 17.1716 16.5 18 16.5C18.8284 16.5 19.5 17.1716 19.5 18Z" stroke="#1A6A83" stroke-linecap="round" stroke-width="0.2"/></svg>