<?xml version="1.0" ?><svg data-name="Layer 2" id="Layer_2" viewBox="0 0 35 35" xmlns="http://www.w3.org/2000/svg"><path d="M14.72,11.19a7.53,7.53,0,0,1,6.42.59s2.16,1.5,1,2.75A1.41,1.41,0,0,1,20,14.36a5.09,5.09,0,0,0-1-.82,3.33,3.33,0,0,0-3.23-.2,1.23,1.23,0,0,0-.61.62,1.15,1.15,0,0,0,.28,1.25s.18.54,4.41,1.24a4.24,4.24,0,0,1,1.78.7,2.78,2.78,0,0,1,1.3,2.16c.1,2.06-.27,2.94-1.77,4s-3.32,1.29-6.28.49-2.79-3.16-2.71-3.33a1.27,1.27,0,0,1,1.32-.83,1.51,1.51,0,0,1,1,.62,4,4,0,0,0,2.07,1.53c1.33.28,2.79.08,3.28-1.05,0,0,.7-1.27-1-1.7s-4-1.05-4.31-1.15a3.3,3.3,0,0,1-2.25-3.7A3.76,3.76,0,0,1,14.72,11.19Z"/><path d="M24.5,34.65A10.22,10.22,0,0,1,20,33.59a16.11,16.11,0,0,1-2.58.2A16.43,16.43,0,0,1,.8,17.55a16.16,16.16,0,0,1,.27-2.94A10.25,10.25,0,0,1,15.14,1.46a17,17,0,0,1,2.24-.15A16.44,16.44,0,0,1,34,17.55a15.82,15.82,0,0,1-.2,2.47A10.24,10.24,0,0,1,24.5,34.65ZM20.17,31a1.15,1.15,0,0,1,.6.16,7.76,7.76,0,0,0,11.48-6.8,7.71,7.71,0,0,0-.89-3.61,1.23,1.23,0,0,1-.13-.8,13.6,13.6,0,0,0,.23-2.44A13.94,13.94,0,0,0,17.38,3.81,14.47,14.47,0,0,0,15.11,4a1.21,1.21,0,0,1-.81-.14,7.68,7.68,0,0,0-3.8-1A7.76,7.76,0,0,0,2.75,10.6a7.68,7.68,0,0,0,.76,3.32,1.23,1.23,0,0,1,.09.8,13.47,13.47,0,0,0-.3,2.83A13.93,13.93,0,0,0,17.38,31.29,14.11,14.11,0,0,0,20,31.06Z"/></svg>