<?xml version="1.0" ?><!DOCTYPE svg  PUBLIC '-//W3C//DTD SVG 1.0//EN'  'http://www.w3.org/TR/2001/REC-SVG-20010904/DTD/svg10.dtd'><svg enable-background="new 0 0 32 32" height="32px" id="Layer_1" version="1.0" viewBox="0 0 32 32" width="32px" xml:space="preserve" xmlns="http://www.w3.org/2000/svg" xmlns:xlink="http://www.w3.org/1999/xlink"><path d="M16.005,0C7.174,0,0.01,7.162,0.01,15.994c0,8.834,7.164,15.996,15.995,15.996  C24.838,31.99,32,24.828,32,15.994C32,7.162,24.838,0,16.005,0z M10.712,6.731c-0.101-0.028-0.377-0.154-0.457-0.028l-0.001,0.309  c0.021,0.187,0.044,0.373,0.065,0.56c0.27,2.234,0.372,4.591-0.321,6.761c-0.372,1.168-1.052,2.235-1.956,3.063  c-0.749,0.687-1.82,1.381-2.883,1.329c-0.198-0.006-0.394-0.039-0.588-0.106c-1.139-0.383-1.205-1.613-1.211-2.624  c-0.01-1.087,0.123-2.171,0.392-3.224c0.081-0.326,0.182-0.644,0.292-0.962C5.288,8.2,8.166,5.263,11.782,3.981  c1.354-0.48,2.786-0.721,4.223-0.721c4.229,0,8.251,2.174,10.575,5.705c0.582,0.885,1.049,1.845,1.391,2.845h-0.005  c0.11,0.318,0.211,0.634,0.295,0.96c0.268,1.055,0.398,2.138,0.392,3.226c-0.017,2.048-0.674,4.302-3.238,3.219  c-1.215-0.51-2.227-1.552-2.979-2.604c-0.868-1.21-1.753-2.398-2.722-3.526c-0.912-1.059-1.88-2.071-2.937-2.99  c-1.048-0.916-2.19-1.786-3.452-2.391C12.483,7.295,11.613,6.989,10.712,6.731z" fill="#F47F1F"/><g/><g/><g/><g/><g/><g/></svg>