<?xml version="1.0" standalone="no"?>
<!DOCTYPE svg PUBLIC "-//W3C//DTD SVG 20010904//EN"
 "http://www.w3.org/TR/2001/REC-SVG-20010904/DTD/svg10.dtd">
<svg version="1.0" xmlns="http://www.w3.org/2000/svg"
 width="512.000000pt" height="512.000000pt" viewBox="0 0 512.000000 512.000000"
 preserveAspectRatio="xMidYMid meet">

<g transform="translate(0.000000,512.000000) scale(0.100000,-0.100000)"
fill="#000000" stroke="none">
<path d="M1340 4575 c-8 -2 -40 -6 -70 -10 -55 -6 -56 -6 -85 -61 l-29 -54 24
-46 c120 -220 389 -460 665 -595 84 -41 304 -123 311 -116 2 1 12 34 22 74
l20 71 -81 27 c-204 67 -416 191 -570 336 -91 84 -194 206 -183 216 12 12 204
15 308 4 350 -35 663 -161 964 -387 97 -72 274 -229 274 -242 0 -4 -76 -19
-168 -34 -392 -64 -746 -166 -1057 -305 -55 -25 -105 -49 -112 -55 -7 -6 -38
-4 -87 6 -390 81 -755 -152 -1029 -656 -53 -96 -167 -355 -167 -379 0 -9 16
-38 36 -64 l37 -47 51 6 c28 4 92 16 141 26 471 99 826 344 999 688 39 78 96
237 96 269 0 12 11 25 28 33 392 185 916 321 1422 370 63 6 134 13 158 15 l43
5 -51 -58 c-69 -77 -131 -171 -181 -275 l-41 -86 -38 19 c-137 70 -369 85
-553 37 -483 -128 -891 -573 -998 -1090 -26 -126 -29 -326 -5 -432 89 -414
427 -658 837 -605 231 30 478 150 664 323 l69 64 34 -111 c67 -224 180 -421
334 -582 145 -151 272 -235 448 -295 89 -31 104 -33 235 -34 128 0 147 2 229
29 247 81 436 303 511 601 152 600 -164 1310 -697 1565 -129 62 -225 82 -369
78 l-120 -3 7 50 c34 257 169 483 364 610 116 76 274 132 342 121 57 -9 267
-81 338 -115 l60 -29 35 58 c19 32 35 63 35 69 0 13 -49 38 -165 84 -190 74
-467 135 -705 157 -151 13 -444 13 -648 -1 l-164 -11 -111 113 c-332 335 -703
542 -1133 630 -75 15 -149 21 -304 24 -113 2 -212 2 -220 0z m2597 -912 l42
-5 -77 -50 c-101 -66 -225 -194 -284 -294 -84 -142 -142 -319 -156 -472 l-7
-76 -50 -29 c-136 -79 -237 -186 -309 -327 -83 -162 -116 -303 -120 -505 l-3
-140 -74 -79 c-141 -150 -343 -277 -524 -328 -108 -31 -311 -33 -395 -4 -186
63 -312 189 -375 377 -23 70 -29 106 -33 214 -7 207 30 362 135 566 204 396
592 669 953 672 183 1 305 -47 425 -168 48 -48 81 -92 104 -140 19 -38 35 -72
37 -74 2 -2 23 3 46 12 24 9 55 21 70 26 l28 10 -25 58 c-32 73 -79 143 -138
209 l-45 50 33 78 c96 220 255 380 420 422 48 13 218 11 322 -3z m-2507 -403
c30 -6 55 -12 58 -14 9 -10 -32 -123 -78 -214 -115 -224 -315 -394 -597 -507
-108 -43 -320 -102 -330 -91 -8 7 109 246 164 336 98 159 227 304 336 379 142
97 306 138 447 111z m2517 -623 c301 -103 553 -388 671 -758 49 -152 66 -279
59 -443 -6 -164 -28 -261 -86 -381 -49 -102 -116 -191 -183 -243 -449 -346
-1116 96 -1259 833 -25 126 -26 325 -4 444 56 293 226 500 465 566 82 23 244
14 337 -18z"/>
<path d="M1867 2084 c-62 -19 -122 -79 -138 -136 -48 -181 147 -420 385 -468
175 -36 307 66 294 225 -14 163 -196 344 -386 384 -67 14 -96 13 -155 -5z
m192 -169 c99 -47 170 -120 192 -199 24 -88 -64 -115 -186 -58 -128 61 -225
207 -175 267 20 24 106 19 169 -10z"/>
<path d="M4070 1395 c-138 -38 -267 -133 -310 -227 -23 -51 -26 -135 -6 -181
76 -182 422 -182 617 0 116 109 132 261 37 350 -67 63 -223 89 -338 58z m220
-164 c41 -29 37 -63 -11 -116 -87 -94 -248 -141 -344 -100 -59 24 -59 68 -1
133 85 93 279 139 356 83z"/>
</g>
</svg>
